<svg id="Layer_1" data-name="Layer 1" xmlns="http://www.w3.org/2000/svg" viewBox="0 0 1600 900">
<path class="curve pred" id="t0_pred" d="M354,185c-.06,4.08-.1,10,0,17.06.61,44.9.77,67.35,7.58,89.12,1.65,5.26,11.28,36.05,28.44,57.84a73.15,73.15,0,0,1,17.07,45.5c.53,21.26-8.52,38.18-12.33,45.51-15.32,29.53-28.33,54.6-34.13,84.38-5.17,26.58-5.54,61.69-5.69,75.85-.05,5.13,0,9.39,0,12.32" stroke="#999" stroke-miterlimit="10" stroke-width="3px"/>
<path class="curve pred" id="t1_pred" d="M515.2,378.43c-.06,4.08-.1,10,0,17.06.61,44.9.77,67.35,7.58,89.12,1.65,5.26,11.28,36,28.45,57.83A73.26,73.26,0,0,1,568.29,588c.53,21.26-8.52,38.17-12.32,45.51-15.33,29.53-28.33,54.6-34.13,84.38-5.18,26.57-5.54,61.69-5.69,75.84-.06,5.14,0,9.4,0,12.33" stroke="#999" stroke-miterlimit="10" stroke-width="3px"/>
<path class="curve pred" id="t2_pred" d="M675.52,477c-.09,2.19-.16,5.35,0,9.15,1,24.09,1.28,36.14,12.58,47.82,2.73,2.83,18.7,19.34,47.16,31,3.92,1.61,15,6,22,12.71,1.29,1.24,5.83,5.81,6.29,11.7.88,11.41-14.13,20.49-20.44,24.42-25.41,15.85-47,29.3-56.59,45.28-8.59,14.26-9.19,33.1-9.44,40.7-.09,2.75-.05,5,0,6.61" stroke="#999" stroke-miterlimit="10" stroke-width="3px"/>
<path class="curve pred" id="t6_pred" d="M1314.57,185a70.59,70.59,0,0,0,0,7.19c.92,18.91,1.17,28.37,11.49,37.54,2.49,2.22,17.07,15.19,43.07,24.37,3.59,1.26,13.68,4.68,20.11,10,1.17,1,5.33,4.56,5.74,9.19.81,8.95-12.9,16.08-18.67,19.17-23.2,12.44-42.91,23-51.69,35.55-7.84,11.19-8.39,26-8.62,31.95-.08,2.16,0,4,0,5.19" stroke="#999" stroke-miterlimit="10" stroke-width="3px"/>
<path class="curve obs" id="t1_obs" d="M514.42,316.4c-.09,1.82-.15,4.45,0,7.62.92,20.05,1.16,30.08,11.48,39.8,2.49,2.35,17.07,16.1,43.06,25.83,3.59,1.34,13.68,5,20.1,10.59,1.18,1,5.33,4.83,5.74,9.74.81,9.49-12.89,17-18.66,20.32-23.2,13.19-42.9,24.39-51.68,37.69-7.83,11.87-8.39,27.55-8.61,33.87-.08,2.29-.05,4.2,0,5.5" fill="#33c780" opacity=".61" stroke="#7f7f7f" stroke-miterlimit="10" stroke-width="3px"/>
<path class="curve obs" id="t4_obs" d="M1000.79,165c-.08,1.82-.14,4.45,0,7.62.93,20.05,1.17,30.08,11.49,39.8,2.49,2.35,17.07,16.1,43.06,25.83,3.58,1.34,13.67,5,20.1,10.59,1.17,1,5.32,4.83,5.74,9.74.81,9.49-12.9,17-18.66,20.32-23.2,13.19-42.9,24.38-51.68,37.69-7.84,11.86-8.39,27.55-8.61,33.87-.08,2.29-.05,4.2,0,5.5" fill="#33c780" opacity=".61" stroke="#7f7f7f" stroke-miterlimit="10" stroke-width="3px"/>
<path class="curve pred" id="t3_pred" d="M837.68,314c-.08,3-.14,7.43,0,12.71.93,33.45,1.17,50.17,11.49,66.4,2.5,3.92,17.08,26.85,43.08,43.08,3.58,2.24,13.68,8.28,20.1,17.66a32.88,32.88,0,0,1,5.75,16.25c.8,15.83-12.9,28.43-18.67,33.9-23.21,22-42.91,40.68-51.69,62.86-7.84,19.8-8.4,46-8.62,56.51-.08,3.82,0,7,0,9.18" stroke="#999" stroke-miterlimit="10" stroke-width="3px"/>
<path class="curve pred" id="t4_pred" d="M1003.62,206.42c-.08,2.9-.14,7.09,0,12.12.93,31.9,1.17,47.85,11.49,63.32A139.28,139.28,0,0,0,1058.19,323c3.58,2.13,13.67,7.89,20.1,16.84a30.47,30.47,0,0,1,5.75,15.49c.8,15.1-12.91,27.12-18.67,32.33-23.21,21-42.91,38.8-51.69,59.95-7.84,18.89-8.4,43.84-8.62,53.89-.08,3.65,0,6.68,0,8.76" stroke="#999" stroke-miterlimit="10" stroke-width="3px"/>
<path class="curve pred" id="t5_pred" d="m1161 291.2a29.42 29.42 0 0 0 0 5.6c1.43 14.74 1.81 22.1 17.71 29.25 3.84 1.73 26.32 11.83 66.39 19 5.52 1 21.08 3.64 31 7.77 1.82 0.76 8.22 3.56 8.86 7.16 1.24 7-19.89 12.53-28.77 14.93-35.77 9.69-66.14 17.92-79.68 27.69-12.08 8.73-12.93 20.25-13.27 24.89a25.6 25.6 0 0 0 0 4" stroke="#999" stroke-miterlimit="10" stroke-width="3px"/>
<path id="trend" d="M196.17,268a443.89,443.89,0,0,1,147.9,36c52.23,22.89,87.42,50.62,111.87,70.16,37.06,29.61,59.86,55,160.23,149.8a214.81,214.81,0,0,0,42.66,32.23c16.94,9.67,47.54,26.64,90.07,26.55,11.75,0,53.26-.68,91-28.45,15.2-11.17,24.09-23.49,41.71-48.35,17.84-25.17,28.66-46,46.46-80.58,18.24-35.46,24-50.11,41.71-73.95,15.06-20.25,26.12-30.11,40.77-35.08,6.88-2.34,18.07-4.78,41.72-.95,33.7,5.46,53.7,17.35,67.31,22.75,45.16,17.94,94.87-5.8,162.12-37.92a499.12,499.12,0,0,0,102.39-65.42" fill="none" opacity=".61" stroke="#33c780" stroke-dasharray="20,20" stroke-linecap="round" stroke-linejoin="round" stroke-width="3px"/>
  <g>
    <g>
      <line x1="341.42" y1="861.66" x2="1443.13" y2="862.13" style="fill: none;stroke: #000;stroke-miterlimit: 10;stroke-width: 1.5px"/>
      <polygon points="1438.92 867.68 1441.28 862.13 1438.92 856.57 1452.09 862.13 1438.92 867.68"/>
    </g>
    <g>
      <path d="M342.34,841.9V833h-2.4v-2.07l2.52-.16.33-4.52h2.28v4.52h4.37V833h-4.37v9c0,2,.64,3.12,2.5,3.12a5.5,5.5,0,0,0,1.83-.43l.53,2.06a9.87,9.87,0,0,1-3,.59C343.51,847.28,342.34,845.11,342.34,841.9Z"/>
      <path d="M351.82,836.22c0-7.09,2.56-10.9,6.79-10.9s6.78,3.82,6.78,10.9-2.56,11.06-6.78,11.06S351.82,843.32,351.82,836.22Zm10.92,0c0-6.2-1.67-8.7-4.13-8.7s-4.14,2.5-4.14,8.7,1.68,8.86,4.14,8.86S362.74,842.43,362.74,836.22Z"/>
    </g>
    <g>
      <path d="M507.89,841.9V833h-2.4v-2.07l2.52-.16.33-4.52h2.28v4.52H515V833h-4.37v9c0,2,.64,3.12,2.49,3.12a5.5,5.5,0,0,0,1.84-.43l.53,2.06a9.93,9.93,0,0,1-3,.59C509.05,847.28,507.89,845.11,507.89,841.9Z"/>
      <path d="M518.52,844.61h4.84V829h-3.85v-1.76a12.84,12.84,0,0,0,4.5-1.55h2.08v18.89h4.38v2.27h-12Z"/>
    </g>
    <g>
      <path d="M673.22,841.9V833h-2.4v-2.07l2.52-.16.33-4.52H676v4.52h4.37V833H676v9c0,2,.64,3.12,2.5,3.12a5.5,5.5,0,0,0,1.83-.43l.53,2.06a9.87,9.87,0,0,1-3,.59C674.38,847.28,673.22,845.11,673.22,841.9Z"/>
      <path d="M682.56,845.27c6.36-6.34,10-10.15,10-13.6,0-2.41-1.32-4.13-4-4.13a6.2,6.2,0,0,0-4.5,2.54l-1.58-1.54c1.77-1.95,3.68-3.22,6.42-3.22,3.91,0,6.35,2.47,6.35,6.23,0,4-3.64,7.92-8.64,13.17,1.15-.09,2.46-.18,3.56-.18h6.12v2.34H682.56Z"/>
    </g>
    <g>
      <path d="M838.77,841.9V833h-2.4v-2.07l2.52-.16.33-4.52h2.28v4.52h4.37V833H841.5v9c0,2,.63,3.12,2.49,3.12a5.5,5.5,0,0,0,1.84-.43l.53,2.06a10,10,0,0,1-3,.59C839.93,847.28,838.77,845.11,838.77,841.9Z"/>
      <path d="M847.66,844.3l1.37-1.78a7.22,7.22,0,0,0,5.41,2.49c2.57,0,4.39-1.5,4.39-3.88s-1.73-4.2-6.75-4.2v-2.09c4.48,0,6-1.73,6-4,0-2-1.41-3.35-3.66-3.35a6.35,6.35,0,0,0-4.51,2.15L848.44,828a8.75,8.75,0,0,1,6.08-2.64c3.68,0,6.34,2,6.34,5.37,0,2.55-1.55,4.18-3.85,5v.14a5.48,5.48,0,0,1,4.59,5.38c0,3.77-3.11,6-7,6A8.93,8.93,0,0,1,847.66,844.3Z"/>
    </g>
    <g>
      <path d="M1002.21,841.9V833H999.8v-2.07l2.53-.16.32-4.52h2.29v4.52h4.36V833h-4.36v9c0,2,.63,3.12,2.49,3.12a5.61,5.61,0,0,0,1.84-.43l.52,2.06a9.87,9.87,0,0,1-3,.59C1003.37,847.28,1002.21,845.11,1002.21,841.9Z"/>
      <path d="M1020.31,832.7c0-1.11.09-2.94.15-4.06h-.13c-.53,1-1.13,1.94-1.72,3l-5,7.23h12.12V841h-15v-1.8l9.06-13.52h3v21.16h-2.58Z"/>
    </g>
    <g>
      <path d="M1167.75,841.9V833h-2.4v-2.07l2.53-.16.32-4.52h2.28v4.52h4.37V833h-4.37v9c0,2,.64,3.12,2.5,3.12a5.5,5.5,0,0,0,1.83-.43l.53,2.06a9.87,9.87,0,0,1-3,.59C1168.92,847.28,1167.75,845.11,1167.75,841.9Z"/>
      <path d="M1176.58,844.38l1.35-1.78a7.22,7.22,0,0,0,5.34,2.41,4.54,4.54,0,0,0,4.63-4.82c0-2.92-1.78-4.65-4.49-4.65a5.9,5.9,0,0,0-3.63,1.29l-1.45-.92.69-10.19h10.6v2.34h-8.2l-.56,6.29a6.33,6.33,0,0,1,3.25-.88c3.61,0,6.56,2.06,6.56,6.63a6.93,6.93,0,0,1-7.13,7.18A9.3,9.3,0,0,1,1176.58,844.38Z"/>
    </g>
    <g>
      <path d="M1333.67,841.9V833h-2.4v-2.07l2.52-.16.33-4.52h2.28v4.52h4.37V833h-4.37v9c0,2,.63,3.12,2.49,3.12a5.55,5.55,0,0,0,1.84-.43l.53,2.06a10,10,0,0,1-3,.59C1334.83,847.28,1333.67,845.11,1333.67,841.9Z"/>
      <path d="M1343.28,837.11c0-8.52,3.84-11.79,8.07-11.79a6.78,6.78,0,0,1,5.1,2.23l-1.52,1.71a4.63,4.63,0,0,0-3.48-1.67c-3,0-5.59,2.42-5.59,9.52,0,5.2,1.68,8,4.72,8,2.08,0,3.68-1.85,3.68-4.64S1353,836,1350.35,836c-1.38,0-3.1.82-4.56,3l-.09-2.16a6.76,6.76,0,0,1,5.1-2.89c3.67,0,6,2.2,6,6.54,0,4-2.86,6.79-6.25,6.79C1346.41,847.28,1343.28,843.9,1343.28,837.11Z"/>
      <path d="M1360.33,845.22a2,2,0,1,1,2,2.06A2,2,0,0,1,1360.33,845.22Z"/>
      <path d="M1368.6,845.22a2,2,0,1,1,2,2.06A2,2,0,0,1,1368.6,845.22Z"/>
      <path d="M1376.86,845.22a2,2,0,1,1,2,2.06A2,2,0,0,1,1376.86,845.22Z"/>
    </g>
  </g>
  <g>
    <path d="M149.56,73.32l4-4.8a12.28,12.28,0,0,0,7.59,3.23c2.92,0,4.35-1.15,4.35-3s-1.76-2.57-4.46-3.68l-4-1.71c-3.2-1.3-6.23-3.93-6.23-8.42,0-5.12,4.57-9.21,11-9.21a14.27,14.27,0,0,1,9.94,4l-3.52,4.4a10.08,10.08,0,0,0-6.42-2.42c-2.4,0-3.94,1-3.94,2.77s2,2.58,4.72,3.66l3.94,1.59c3.77,1.53,6.13,4,6.13,8.41,0,5.13-4.28,9.57-11.64,9.57A17,17,0,0,1,149.56,73.32Z"/>
    <path d="M176,65.46c0-7.63,5.44-12.34,11.09-12.34,6.7,0,10,4.87,10,11.29a15.94,15.94,0,0,1-.29,3.08H182.72c.62,3.42,3,5,6.1,5a9.82,9.82,0,0,0,5.09-1.54l2.3,4.2a15.3,15.3,0,0,1-8.34,2.65C181.16,77.78,176,73.25,176,65.46Zm15.16-2.57c0-2.59-1.13-4.45-3.91-4.45-2.2,0-4.1,1.47-4.58,4.45Z"/>
    <path d="M216,78.77l.25-3.59a8.85,8.85,0,0,1-5.9,2.6c-5.85,0-9.62-4.64-9.62-12.32s4.8-12.34,9.75-12.34A7.94,7.94,0,0,1,216.71,56h.18l.58-2.32h5.45V85.94h-7Zm0-8.8V60.32a5.68,5.68,0,0,0-3.89-1.49c-2.26,0-4.24,2.08-4.24,6.55,0,4.62,1.6,6.7,4.29,6.7A4.47,4.47,0,0,0,216,70Z"/>
    <path d="M228.83,68.3V53.69h7V67.4c0,3.39.91,4.45,2.92,4.45,1.75,0,2.82-.74,4.18-2.59V53.69h7V77.21h-5.69l-.5-3.26h-.17c-2,2.34-4.18,3.83-7.39,3.83C231,77.78,228.83,74.17,228.83,68.3Z"/>
    <path d="M254.61,65.46c0-7.63,5.44-12.34,11.09-12.34,6.7,0,10,4.87,10,11.29a15.17,15.17,0,0,1-.29,3.08H261.36c.63,3.42,3,5,6.1,5a9.82,9.82,0,0,0,5.09-1.54l2.3,4.2a15.27,15.27,0,0,1-8.34,2.65C259.8,77.78,254.61,73.25,254.61,65.46Zm15.16-2.57c0-2.59-1.13-4.45-3.91-4.45-2.2,0-4.1,1.47-4.58,4.45Z"/>
    <path d="M280.53,53.69h5.69l.5,3h.17c2-1.9,4.35-3.55,7.56-3.55,5.11,0,7.3,3.61,7.3,9.49v14.6h-7V63.51c0-3.39-.91-4.45-2.93-4.45-1.75,0-2.82.82-4.35,2.29V77.21h-7Z"/>
    <path d="M308.59,68.66v-9.5h-3.21V54l3.6-.27.81-6.24h5.77v6.24h5.64v5.47h-5.64v9.42c0,2.67,1.21,3.74,3,3.74a7.08,7.08,0,0,0,2.24-.45l1.1,5.06a16.52,16.52,0,0,1-5.23.85C310.9,77.78,308.59,74.11,308.59,68.66Z"/>
    <path d="M325.26,46.61c0-2.14,1.7-3.64,4-3.64s4,1.5,4,3.64a4.06,4.06,0,0,1-8.07,0Zm.54,7.08h7V77.21h-7Z"/>
    <path d="M337.8,70.69c0-5,3.95-7.64,13.25-8.62-.14-2.06-1.17-3.4-3.72-3.4-2,0-3.94.83-6.23,2.13l-2.47-4.58a19.25,19.25,0,0,1,10-3.1c6,0,9.35,3.44,9.35,10.65V77.21h-5.69l-.5-2.4h-.17a10.32,10.32,0,0,1-6.85,3A6.77,6.77,0,0,1,337.8,70.69Zm13.25-.31V66.27c-5,.67-6.57,2.09-6.57,3.87,0,1.51,1,2.25,2.69,2.25S349.81,71.61,351.05,70.38Z"/>
    <path d="M363.87,69.91V44h7V70.19c0,1.5.7,2,1.27,2a2.91,2.91,0,0,0,.85-.1l.83,5.14a9,9,0,0,1-3.5.58C365.5,77.78,363.87,74.66,363.87,69.91Z"/>
    <path d="M387.48,46.32h8.74c9.44,0,15.52,4.69,15.52,15.31s-6.08,15.58-15.13,15.58h-9.13Zm8.31,25.27c5.25,0,8.79-2.57,8.79-10s-3.54-9.69-8.79-9.69h-1.32V71.59Z"/>
    <path d="M415.92,70.69c0-5,3.95-7.64,13.25-8.62-.14-2.06-1.17-3.4-3.72-3.4-2,0-3.94.83-6.22,2.13l-2.48-4.58a19.25,19.25,0,0,1,10-3.1c6,0,9.35,3.44,9.35,10.65V77.21h-5.69l-.5-2.4h-.17a10.32,10.32,0,0,1-6.85,3A6.77,6.77,0,0,1,415.92,70.69Zm13.25-.31V66.27c-5,.67-6.57,2.09-6.57,3.87,0,1.51,1,2.25,2.69,2.25S427.93,71.61,429.17,70.38Z"/>
    <path d="M442.08,68.66v-9.5h-3.22V54l3.61-.27.81-6.24h5.77v6.24h5.63v5.47h-5.63v9.42c0,2.67,1.21,3.74,3,3.74a7.08,7.08,0,0,0,2.24-.45l1.1,5.06a16.52,16.52,0,0,1-5.23.85C444.39,77.78,442.08,74.11,442.08,68.66Z"/>
    <path d="M457.26,70.69c0-5,3.94-7.64,13.25-8.62-.14-2.06-1.17-3.4-3.72-3.4-2,0-4,.83-6.23,2.13l-2.48-4.58a19.29,19.29,0,0,1,10.05-3.1c6,0,9.34,3.44,9.34,10.65V77.21h-5.68l-.5-2.4h-.18a10.32,10.32,0,0,1-6.84,3A6.77,6.77,0,0,1,457.26,70.69Zm13.25-.31V66.27c-5,.67-6.58,2.09-6.58,3.87,0,1.51,1.05,2.25,2.7,2.25S469.27,71.61,470.51,70.38Z"/>
    <path d="M499.13,46.32h8.36l9.71,30.89h-7.4l-4-15.64c-.86-3.09-1.68-6.75-2.51-10h-.19c-.75,3.26-1.57,6.88-2.43,10l-4.06,15.64h-7.14Zm-3.3,18.11h14.86v5.42H495.83Z"/>
    <path d="M518.55,74.5l3.13-4.34a10.23,10.23,0,0,0,6.07,2.47c2.08,0,3-.79,3-2,0-1.54-2.33-2.25-4.75-3.2-2.88-1.11-6.22-3-6.22-6.91,0-4.38,3.56-7.37,9-7.37a13.38,13.38,0,0,1,8.29,3l-3.12,4.19a8.7,8.7,0,0,0-4.95-2c-1.8,0-2.68.71-2.68,1.88,0,1.5,2.2,2.07,4.64,3,3,1.1,6.33,2.78,6.33,7.08s-3.36,7.58-9.66,7.58A15.26,15.26,0,0,1,518.55,74.5Z"/>
    <path d="M539.55,74.5l3.13-4.34a10.2,10.2,0,0,0,6.07,2.47c2.08,0,3-.79,3-2,0-1.54-2.33-2.25-4.75-3.2-2.88-1.11-6.22-3-6.22-6.91,0-4.38,3.56-7.37,9-7.37a13.38,13.38,0,0,1,8.29,3l-3.12,4.19a8.7,8.7,0,0,0-4.95-2c-1.8,0-2.69.71-2.69,1.88,0,1.5,2.21,2.07,4.64,3,3,1.1,6.34,2.78,6.34,7.08s-3.36,7.58-9.66,7.58A15.26,15.26,0,0,1,539.55,74.5Z"/>
    <path d="M562.09,46.61c0-2.14,1.69-3.64,4-3.64s4,1.5,4,3.64a4.05,4.05,0,0,1-8.06,0Zm.54,7.08h7V77.21h-7Z"/>
    <path d="M575.71,53.69h5.69l.5,3h.17c1.93-1.94,4-3.59,7.13-3.59a6.5,6.5,0,0,1,6.49,4c2.07-2.15,4.28-4,7.39-4,5.08,0,7.35,3.61,7.35,9.49v14.6h-7V63.51c0-3.39-.92-4.45-2.9-4.45-1.18,0-2.52.74-4,2.29V77.21h-7V63.51c0-3.39-.93-4.45-2.91-4.45-1.16,0-2.52.74-4,2.29V77.21h-7Z"/>
    <path d="M615.79,46.61c0-2.14,1.7-3.64,4-3.64s4,1.5,4,3.64a4.06,4.06,0,0,1-8.07,0Zm.55,7.08h7V77.21h-7Z"/>
    <path d="M629.42,69.91V44h7V70.19c0,1.5.69,2,1.26,2a2.84,2.84,0,0,0,.85-.1l.83,5.14a9,9,0,0,1-3.5.58C631.05,77.78,629.42,74.66,629.42,69.91Z"/>
    <path d="M641.89,70.69c0-5,4-7.64,13.25-8.62-.14-2.06-1.17-3.4-3.72-3.4-2,0-3.94.83-6.22,2.13l-2.48-4.58a19.26,19.26,0,0,1,10-3.1c6,0,9.34,3.44,9.34,10.65V77.21h-5.69l-.5-2.4h-.17a10.32,10.32,0,0,1-6.84,3A6.78,6.78,0,0,1,641.89,70.69Zm13.25-.31V66.27c-5,.67-6.57,2.09-6.57,3.87,0,1.51,1,2.25,2.7,2.25S653.9,71.61,655.14,70.38Z"/>
    <path d="M668.05,68.66v-9.5h-3.22V54l3.61-.27.81-6.24H675v6.24h5.63v5.47H675v9.42c0,2.67,1.21,3.74,3,3.74a7.08,7.08,0,0,0,2.24-.45l1.1,5.06a16.52,16.52,0,0,1-5.23.85C670.36,77.78,668.05,74.11,668.05,68.66Z"/>
    <path d="M684.72,46.61c0-2.14,1.7-3.64,4-3.64s4,1.5,4,3.64a4.06,4.06,0,0,1-8.07,0Zm.54,7.08h7V77.21h-7Z"/>
    <path d="M697,65.46c0-7.82,5.5-12.34,11.45-12.34s11.46,4.52,11.46,12.34-5.5,12.32-11.46,12.32S697,73.27,697,65.46Zm15.77,0c0-4.07-1.43-6.71-4.32-6.71s-4.31,2.64-4.31,6.71,1.43,6.7,4.31,6.7S712.75,69.53,712.75,65.46Z"/>
    <path d="M724.65,53.69h5.69l.5,3H731c2-1.9,4.35-3.55,7.56-3.55,5.11,0,7.3,3.61,7.3,9.49v14.6h-7V63.51c0-3.39-.91-4.45-2.93-4.45-1.75,0-2.82.82-4.35,2.29V77.21h-7Z"/>
  </g>
  <g id="legend">
    <g>
      <path class="leg_text_pred" d="M1202.65,511.76h2.22l4.7,13.19,1.77,5h.14c.59-1.67,1.12-3.34,1.71-5l4.69-13.19h2.22v22.49h-1.51V519.46c0-1.82.11-4.19.2-6.07h-.14l-1.75,5-4.85,13.39h-1.36l-4.88-13.39-1.78-5h-.13c.08,1.88.19,4.25.19,6.07v14.79h-1.44Z"/>
      <path class="leg_text_pred" d="M1225.19,526.09c0-5.49,3.42-8.64,7.36-8.64s7.36,3.15,7.36,8.64-3.42,8.57-7.36,8.57S1225.19,531.51,1225.19,526.09Zm13.14,0c0-4.32-2.47-7.31-5.78-7.31s-5.77,3-5.77,7.31,2.46,7.24,5.77,7.24S1238.33,530.4,1238.33,526.09Z"/>
      <path class="leg_text_pred" d="M1243.47,526.09c0-5.29,3.35-8.64,7.27-8.64a7.55,7.55,0,0,1,4.94,2l-.08-3V509.7h1.51v24.55h-1.28l-.16-2.12h-.08a7.72,7.72,0,0,1-5.35,2.53C1246.13,534.66,1243.47,531.62,1243.47,526.09Zm12.13,4.53V520.9a6.88,6.88,0,0,0-4.78-2.11c-3.26,0-5.77,3.18-5.77,7.29,0,4.36,1.94,7.24,5.41,7.24C1252.27,533.32,1253.88,532.37,1255.6,530.62Z"/>
      <path class="leg_text_pred" d="M1262,526.09c0-5.35,3.47-8.64,7.15-8.64,3.88,0,6.27,2.76,6.27,7.59a7.21,7.21,0,0,1-.08,1.22h-11.79c0,4.14,2.48,7.1,6.17,7.1a7.33,7.33,0,0,0,4.4-1.46l.63,1.15a9,9,0,0,1-5.17,1.61C1265.41,534.66,1262,531.45,1262,526.09Zm12-1.07c0-4.18-1.9-6.27-4.84-6.27-2.77,0-5.28,2.35-5.62,6.27Z"/>
      <path class="leg_text_pred" d="M1279.88,532.05V509.7h1.51v22.56c0,.73.3,1.07.71,1.07a2.59,2.59,0,0,0,.62-.07l.25,1.23a3.41,3.41,0,0,1-1.09.17C1280.57,534.66,1279.88,533.85,1279.88,532.05Z"/>
      <path class="leg_text_pred" d="M1295,511.76h5.66c5.1,0,8.16,1.65,8.16,6.26,0,4.42-3,6.56-8,6.56h-4.23v9.67H1295Zm5.41,11.49c4.59,0,6.79-1.53,6.79-5.23s-2.28-4.94-6.93-4.94h-3.7v10.17Z"/>
      <path class="leg_text_pred" d="M1313.54,517.86h1.27l.17,3.06h.07c1.11-2,2.71-3.47,4.66-3.47a3.51,3.51,0,0,1,1.63.34l-.34,1.37a3.68,3.68,0,0,0-1.48-.28c-1.48,0-3.23,1.12-4.48,4.22v11.15h-1.5Z"/>
      <path class="leg_text_pred" d="M1322.63,526.09c0-5.35,3.48-8.64,7.15-8.64,3.89,0,6.28,2.76,6.28,7.59a7.23,7.23,0,0,1-.09,1.22h-11.79c.06,4.14,2.48,7.1,6.18,7.1a7.37,7.37,0,0,0,4.4-1.46l.62,1.15a8.93,8.93,0,0,1-5.17,1.61C1326,534.66,1322.63,531.45,1322.63,526.09Zm12-1.07c0-4.18-1.9-6.27-4.84-6.27-2.78,0-5.28,2.35-5.62,6.27Z"/>
      <path class="leg_text_pred" d="M1339.13,526.09c0-5.29,3.36-8.64,7.27-8.64a7.55,7.55,0,0,1,4.95,2l-.09-3V509.7h1.51v24.55h-1.27l-.17-2.12h-.07a7.74,7.74,0,0,1-5.35,2.53C1341.8,534.66,1339.13,531.62,1339.13,526.09Zm12.13,4.53V520.9a6.84,6.84,0,0,0-4.78-2.11c-3.25,0-5.76,3.18-5.76,7.29,0,4.36,1.94,7.24,5.41,7.24C1347.94,533.32,1349.54,532.37,1351.26,530.62Z"/>
      <path class="leg_text_pred" d="M1358.48,512.56a1.37,1.37,0,0,1,2.74,0,1.37,1.37,0,0,1-2.74,0Zm.59,5.3h1.5v16.39h-1.5Z"/>
      <path class="leg_text_pred" d="M1365.5,526.09c0-5.49,3.5-8.64,7.49-8.64a6.74,6.74,0,0,1,4.8,2l-.89,1a5.61,5.61,0,0,0-3.87-1.74c-3.36,0-5.94,3-5.94,7.31s2.35,7.24,5.91,7.24a6.52,6.52,0,0,0,4.39-1.89l.78,1.06a7.81,7.81,0,0,1-5.23,2.16C1368.7,534.66,1365.5,531.51,1365.5,526.09Z"/>
      <path class="leg_text_pred" d="M1382.25,529.72V519.18h-2.56V518l2.59-.14.19-4.74h1.28v4.74h4.76v1.32h-4.76v10.66c0,2.09.53,3.5,2.79,3.5a5.85,5.85,0,0,0,2-.52l.4,1.23a9.59,9.59,0,0,1-2.68.61C1383.17,534.66,1382.25,532.66,1382.25,529.72Z"/>
      <path class="leg_text_pred" d="M1391.93,512.56a1.37,1.37,0,0,1,2.74,0,1.37,1.37,0,0,1-2.74,0Zm.58,5.3H1394v16.39h-1.51Z"/>
      <path class="leg_text_pred" d="M1399,526.09c0-5.49,3.42-8.64,7.36-8.64s7.36,3.15,7.36,8.64-3.42,8.57-7.36,8.57S1399,531.51,1399,526.09Zm13.13,0c0-4.32-2.46-7.31-5.77-7.31s-5.78,3-5.78,7.31,2.47,7.24,5.78,7.24S1412.08,530.4,1412.08,526.09Z"/>
      <path class="leg_text_pred" d="M1418.59,517.86h1.28l.16,2.54h.07c1.68-1.67,3.38-2.95,5.64-2.95,3.39,0,5,2,5,6.29v10.51h-1.51V523.94c0-3.48-1.1-5.13-3.73-5.13-2,0-3.37,1-5.36,3.08v12.36h-1.51Z"/>
    </g>
    <g transform="translate(0,75)">
      <path class="leg_text_up" d="M1202.65,590.53h2.22l4.7,13.2,1.77,5h.14c.59-1.67,1.12-3.34,1.71-5l4.69-13.2h2.22V613h-1.51V598.24c0-1.82.11-4.2.2-6.08h-.14l-1.75,5-4.85,13.39h-1.36l-4.88-13.39-1.78-5h-.13c.08,1.88.19,4.26.19,6.08V613h-1.44Z"/>
      <path class="leg_text_up" d="M1225.19,604.86c0-5.48,3.42-8.63,7.36-8.63s7.36,3.15,7.36,8.63-3.42,8.58-7.36,8.58S1225.19,610.28,1225.19,604.86Zm13.14,0c0-4.31-2.47-7.3-5.78-7.3s-5.77,3-5.77,7.3,2.46,7.25,5.77,7.25S1238.33,609.18,1238.33,604.86Z"/>
      <path class="leg_text_up" d="M1243.47,604.86c0-5.29,3.35-8.63,7.27-8.63a7.55,7.55,0,0,1,4.94,2l-.08-3v-6.76h1.51V613h-1.28l-.16-2.13h-.08a7.69,7.69,0,0,1-5.35,2.54C1246.13,613.44,1243.47,610.39,1243.47,604.86Zm12.13,4.54v-9.73a6.92,6.92,0,0,0-4.78-2.11c-3.26,0-5.77,3.19-5.77,7.3,0,4.36,1.94,7.24,5.41,7.24C1252.27,612.1,1253.88,611.15,1255.6,609.4Z"/>
      <path class="leg_text_up" d="M1262,604.86c0-5.34,3.47-8.63,7.15-8.63,3.88,0,6.27,2.76,6.27,7.58a7.26,7.26,0,0,1-.08,1.23h-11.79c0,4.14,2.48,7.09,6.17,7.09a7.32,7.32,0,0,0,4.4-1.45l.63,1.15a9.06,9.06,0,0,1-5.17,1.61C1265.41,613.44,1262,610.22,1262,604.86Zm12-1.06c0-4.19-1.9-6.27-4.84-6.27-2.77,0-5.28,2.35-5.62,6.27Z"/>
      <path class="leg_text_up" d="M1279.88,610.83V588.47h1.51V611c0,.73.3,1.08.71,1.08a2.59,2.59,0,0,0,.62-.07l.25,1.23a3.41,3.41,0,0,1-1.09.17C1280.57,613.44,1279.88,612.62,1279.88,610.83Z"/>
      <path class="leg_text_up" d="M1294.89,604.4V590.53h1.57v13.69c0,6,2.81,7.79,6,7.79s6.12-1.8,6.12-7.79V590.53h1.49V604.4c0,7-3.73,9-7.61,9S1294.89,611.42,1294.89,604.4Z"/>
      <path class="leg_text_up" d="M1316.44,596.64h1.27l.17,2.06h.07c1.6-1.29,3.55-2.47,5.57-2.47,4.39,0,6.56,3.29,6.56,8.36,0,5.56-3.36,8.85-7.23,8.85a8.52,8.52,0,0,1-4.92-2l0,3v6h-1.51Zm12,8c0-4-1.43-7-5.21-7-1.63,0-3.35,1-5.33,2.71V610a7.9,7.9,0,0,0,4.82,2.11C1326.1,612.1,1328.49,609,1328.49,604.6Z"/>
      <path class="leg_text_up" d="M1333.64,604.86c0-5.29,3.36-8.63,7.27-8.63a7.53,7.53,0,0,1,4.94,2l-.08-3v-6.76h1.51V613H1346l-.16-2.13h-.08a7.69,7.69,0,0,1-5.34,2.54C1336.31,613.44,1333.64,610.39,1333.64,604.86Zm12.13,4.54v-9.73a6.92,6.92,0,0,0-4.78-2.11c-3.26,0-5.77,3.19-5.77,7.3,0,4.36,1.94,7.24,5.41,7.24C1342.44,612.1,1344.05,611.15,1345.77,609.4Z"/>
      <path class="leg_text_up" d="M1352.4,609c0-3.64,3.28-5.38,10.57-6.18,0-2.52-.64-5.22-3.86-5.22a8.94,8.94,0,0,0-5.23,1.93l-.69-1.12a11,11,0,0,1,6.1-2.13c3.88,0,5.19,2.82,5.19,6.32V613h-1.28l-.16-2.13H1363a9.64,9.64,0,0,1-5.81,2.54C1354.55,613.44,1352.4,612,1352.4,609Zm10.57.54v-5.58c-6.73.78-9,2.34-9,5,0,2.35,1.59,3.26,3.47,3.26S1360.94,611.22,1363,609.49Z"/>
      <path class="leg_text_up" d="M1370.34,608.5V598h-2.56v-1.17l2.59-.14.19-4.75h1.28v4.75h4.76V598h-4.76v10.66c0,2.1.53,3.51,2.79,3.51a5.85,5.85,0,0,0,2-.52l.4,1.22a9.3,9.3,0,0,1-2.68.62C1371.26,613.44,1370.34,611.44,1370.34,608.5Z"/>
      <path class="leg_text_up" d="M1378.85,604.86c0-5.34,3.47-8.63,7.15-8.63,3.88,0,6.27,2.76,6.27,7.58a6.37,6.37,0,0,1-.09,1.23H1380.4c0,4.14,2.48,7.09,6.17,7.09a7.36,7.36,0,0,0,4.4-1.45l.62,1.15a9,9,0,0,1-5.16,1.61C1382.24,613.44,1378.85,610.22,1378.85,604.86Zm12-1.06c0-4.19-1.9-6.27-4.84-6.27-2.77,0-5.28,2.35-5.62,6.27Z"/>
    </g>
    <g transform="translate(0,-75)">
      <path class="leg_text_obs" d="M1201.2,680.4c0-7.12,3.86-11.59,9.26-11.59s9.27,4.47,9.27,11.59-3.86,11.73-9.27,11.73S1201.2,687.52,1201.2,680.4Zm16.88,0c0-6.24-3-10.16-7.62-10.16s-7.61,3.92-7.61,10.16,3.05,10.3,7.61,10.3S1218.08,686.64,1218.08,680.4Z"/>
      <path class="leg_text_obs" d="M1226.23,690.06h-.07l-.17,1.66h-1.26V667.16h1.51v7.13l-.08,3.19a9.32,9.32,0,0,1,5.64-2.56c4.4,0,6.57,3.29,6.57,8.36,0,5.56-3.36,8.85-7.22,8.85A8.28,8.28,0,0,1,1226.23,690.06Zm10.56-6.77c0-4-1.44-7-5.22-7-1.62,0-3.41,1-5.33,2.71v9.72a7.79,7.79,0,0,0,4.82,2.11C1234.4,690.79,1236.79,687.73,1236.79,683.29Z"/>
      <path class="leg_text_obs" d="M1241.15,689.86l.88-1.1a7.56,7.56,0,0,0,5.21,2.08c2.58,0,3.91-1.51,3.91-3.24,0-2.05-2.12-3-4-3.64-2.47-.88-5.22-1.88-5.22-4.68,0-2.36,1.87-4.36,5.28-4.36a7.61,7.61,0,0,1,4.68,1.7l-.81,1.08a6.26,6.26,0,0,0-3.91-1.49c-2.56,0-3.71,1.47-3.71,3,0,1.87,1.93,2.58,3.88,3.32,2.54,1,5.35,1.8,5.35,5,0,2.47-2,4.62-5.52,4.62A9.38,9.38,0,0,1,1241.15,689.86Z"/>
      <path class="leg_text_obs" d="M1255.64,683.55c0-5.34,3.47-8.63,7.15-8.63,3.88,0,6.27,2.76,6.27,7.58a6.37,6.37,0,0,1-.09,1.23h-11.78c0,4.14,2.48,7.09,6.17,7.09a7.34,7.34,0,0,0,4.4-1.45l.62,1.15a9,9,0,0,1-5.16,1.61C1259,692.13,1255.64,688.91,1255.64,683.55Zm12-1.06c0-4.19-1.9-6.27-4.84-6.27-2.77,0-5.28,2.35-5.62,6.27Z"/>
      <path class="leg_text_obs" d="M1273.5,675.33h1.28l.16,3h.08c1.11-2,2.71-3.46,4.66-3.46a3.33,3.33,0,0,1,1.62.34l-.34,1.36a3.78,3.78,0,0,0-1.48-.27c-1.47,0-3.22,1.12-4.47,4.22v11.15h-1.51Z"/>
      <path class="leg_text_obs" d="M1282.81,675.33h1.63l3.69,10.26c.53,1.59,1.13,3.24,1.66,4.71h.14c.53-1.47,1.12-3.12,1.65-4.71l3.69-10.26h1.54l-6.07,16.39H1289Z"/>
      <path class="leg_text_obs" d="M1298.51,687.64c0-3.64,3.28-5.38,10.57-6.18.05-2.52-.64-5.22-3.86-5.22a8.94,8.94,0,0,0-5.23,1.93l-.69-1.12a11,11,0,0,1,6.09-2.13c3.89,0,5.2,2.82,5.2,6.33v10.47h-1.28l-.16-2.13h-.08a9.64,9.64,0,0,1-5.81,2.54C1300.66,692.13,1298.51,690.71,1298.51,687.64Zm10.57.54V682.6c-6.73.78-9,2.35-9,5,0,2.35,1.59,3.26,3.47,3.26S1307.05,689.91,1309.08,688.18Z"/>
      <path class="leg_text_obs" d="M1316.45,687.19V676.64h-2.57v-1.17l2.6-.14.19-4.75H1318v4.75h4.76v1.31H1318V687.3c0,2.1.53,3.51,2.79,3.51a5.85,5.85,0,0,0,2-.52l.4,1.22a9.3,9.3,0,0,1-2.68.62C1317.37,692.13,1316.45,690.13,1316.45,687.19Z"/>
      <path class="leg_text_obs" d="M1326.12,670a1.38,1.38,0,0,1,2.75,0,1.38,1.38,0,0,1-2.75,0Zm.59,5.3h1.51v16.39h-1.51Z"/>
      <path class="leg_text_obs" d="M1333.15,683.55c0-5.48,3.42-8.63,7.36-8.63s7.36,3.15,7.36,8.63-3.42,8.58-7.36,8.58S1333.15,689,1333.15,683.55Zm13.13,0c0-4.31-2.46-7.3-5.77-7.3s-5.78,3-5.78,7.3,2.47,7.25,5.78,7.25S1346.28,687.87,1346.28,683.55Z"/>
      <path class="leg_text_obs" d="M1352.79,675.33h1.27l.17,2.54h.07c1.67-1.67,3.38-3,5.64-3,3.39,0,5,2.05,5,6.28v10.52h-1.51V681.4c0-3.47-1.1-5.12-3.74-5.12-2,0-3.36,1-5.36,3.07v12.37h-1.5Z"/>
    </g>
    <g>
      <path class="leg_text_true" d="M1207.49,736h-7.16v-1.35h15.89V736h-7.16v21.15h-1.57Z"/>
      <path class="leg_text_true" d="M1218.69,740.75H1220l.17,3h.07c1.11-2,2.72-3.47,4.67-3.47a3.39,3.39,0,0,1,1.62.35l-.34,1.36a3.61,3.61,0,0,0-1.48-.27c-1.48,0-3.22,1.12-4.47,4.22v11.15h-1.51Z"/>
      <path class="leg_text_true" d="M1229.25,751.26V740.75h1.51v10.31c0,3.48,1.1,5.13,3.73,5.13,2,0,3.37-1,5.29-3.35V740.75h1.5v16.39H1240l-.17-2.75h-.07c-1.61,1.89-3.31,3.15-5.57,3.15C1230.82,757.54,1229.25,755.49,1229.25,751.26Z"/>
      <path class="leg_text_true"  d="M1246.18,749c0-5.34,3.48-8.64,7.15-8.64,3.88,0,6.27,2.77,6.27,7.59a7.26,7.26,0,0,1-.08,1.23h-11.79c.06,4.14,2.48,7.09,6.17,7.09a7.44,7.44,0,0,0,4.41-1.45l.62,1.14a9,9,0,0,1-5.17,1.61C1249.58,757.54,1246.18,754.33,1246.18,749Zm12-1.06c0-4.19-1.89-6.27-4.84-6.27-2.77,0-5.27,2.35-5.62,6.27Z"/>
    </g>
    <path class="legend" id="legend_pred" d="M1086.82,539.5a36.42,36.42,0,0,0,3.8,0c10-.45,15-.58,19.85-5.68a63.8,63.8,0,0,0,12.88-21.33c.67-1.77,2.48-6.76,5.28-9.95.51-.58,2.41-2.63,4.86-2.84,4.73-.4,8.5,6.39,10.13,9.24,6.58,11.49,12.16,21.24,18.8,25.59,5.92,3.88,13.74,4.15,16.89,4.26,1.14,0,2.09,0,2.74,0" style="fill: none;stroke: #999;stroke-miterlimit: 10;stroke-width: 3px"/>
    <path transform="translate(0,75)" class="legend" id="legend_up" d="M1086.82,615.35c.91,0,2.23.07,3.8,0,10-.46,15-.58,19.85-5.69,1.17-1.23,8-8.45,12.88-21.32.67-1.77,2.48-6.77,5.28-10,.51-.58,2.41-2.64,4.86-2.84,4.73-.4,8.5,6.38,10.13,9.24,6.58,11.48,12.16,21.24,18.8,25.58,5.92,3.88,13.74,4.16,16.89,4.27,1.14,0,2.09,0,2.74,0" style="fill: none;stroke: #999;stroke-miterlimit: 10;stroke-width: 3px"/>
    <path transform="translate(0,-75)" class="legend" id="legend_obs" d="M1087.56,685.08c.91,0,2.23.07,3.8,0,10-.46,15-.58,19.85-5.69,1.18-1.23,8-8.45,12.88-21.32.67-1.78,2.48-6.77,5.28-10,.52-.59,2.41-2.64,4.86-2.85,4.73-.4,8.5,6.39,10.13,9.24,6.58,11.49,12.16,21.24,18.8,25.59,5.92,3.88,13.74,4.15,16.89,4.27,1.14,0,2.09,0,2.75,0" style="fill: #33c780;stroke: #7f7f7f;stroke-miterlimit: 10;stroke-width: 3px;opacity: 0.61"/>
    <path class="legend" id="legend_true" d="M1091.89,745.32l96.71.94" style="fill: none;stroke: #33c780;stroke-linecap: round;stroke-linejoin: round;stroke-width: 3px;stroke-dasharray: 20,20"/>
  </g>
  <g>
    <path d="M152.51,98.65h7c4.95,0,8.62,1.72,8.62,6.88,0,5-3.68,7.24-8.49,7.24h-3.21V121h-4Zm6.84,10.95c3.34,0,4.92-1.32,4.92-4.07s-1.73-3.71-5.05-3.71h-2.75v7.78Z"/>
    <path d="M172,104.21h3.22l.3,3h.11c1.19-2.19,3-3.4,4.76-3.4a4.28,4.28,0,0,1,1.9.34l-.68,3.41a5.85,5.85,0,0,0-1.72-.27c-1.34,0-3,.92-4,3.47V121H172Z"/>
    <path d="M183.32,112.61c0-5.45,3.78-8.81,7.73-8.81,4.53,0,6.92,3.28,6.92,8a10.08,10.08,0,0,1-.17,1.91H187.16c.32,3,2.24,4.67,4.94,4.67a7.12,7.12,0,0,0,3.89-1.22l1.34,2.45a10.4,10.4,0,0,1-5.75,1.81C187,121.38,183.32,118.14,183.32,112.61ZM194.57,111c0-2.58-1.15-4.15-3.44-4.15-1.95,0-3.67,1.46-4,4.15Z"/>
    <path d="M200.71,112.61c0-5.47,3.42-8.81,7.1-8.81a6.18,6.18,0,0,1,4.39,1.84l-.15-2.7V96.86H216V121h-3.22l-.3-1.82h-.11a7,7,0,0,1-4.76,2.22C203.41,121.38,200.71,118.14,200.71,112.61Zm11.34,3.64v-7.81a5,5,0,0,0-3.41-1.39c-2.13,0-3.89,2-3.89,5.51,0,3.65,1.39,5.58,3.81,5.58A4.43,4.43,0,0,0,212.05,116.25Z"/>
    <path d="M220.53,99.05a2.44,2.44,0,1,1,2.43,2.22A2.25,2.25,0,0,1,220.53,99.05Zm.45,5.16h3.93V121H221Z"/>
    <path d="M228.82,112.61c0-5.59,3.94-8.81,8.41-8.81a7.2,7.2,0,0,1,4.9,1.88l-1.91,2.56a4.12,4.12,0,0,0-2.79-1.23c-2.7,0-4.57,2.24-4.57,5.6s1.84,5.57,4.45,5.57a5.56,5.56,0,0,0,3.47-1.45l1.59,2.59a8.23,8.23,0,0,1-5.47,2.06C232.32,121.38,228.82,118.16,228.82,112.61Z"/>
    <path d="M245.94,115.32v-8h-2.39v-2.94l2.59-.18.46-4.58h3.27v4.58h4.27v3.12h-4.27v8c0,2,.76,2.94,2.37,2.94a5.26,5.26,0,0,0,1.75-.38l.67,2.89a10.86,10.86,0,0,1-3.43.61C247.37,121.38,245.94,118.94,245.94,115.32Z"/>
    <path d="M263.59,116.47c0-3.59,3-5.46,9.86-6.2-.05-1.8-.78-3.3-3-3.3a9.24,9.24,0,0,0-4.71,1.65L264.25,106a13.07,13.07,0,0,1,6.88-2.2c4.19,0,6.25,2.58,6.25,7.25V121h-3.22l-.3-1.86h-.11a8.1,8.1,0,0,1-5.2,2.26A4.7,4.7,0,0,1,263.59,116.47Zm9.86,0v-3.77c-4.54.58-6.06,1.77-6.06,3.46,0,1.48,1,2.13,2.42,2.13A5.28,5.28,0,0,0,273.45,116.48Z"/>
    <path d="M282.15,115.32v-8h-2.39v-2.94l2.59-.18.47-4.58h3.26v4.58h4.27v3.12h-4.27v8c0,2,.76,2.94,2.38,2.94a5.25,5.25,0,0,0,1.74-.38l.67,2.89a10.85,10.85,0,0,1-3.42.61C283.58,121.38,282.15,118.94,282.15,115.32Z"/>
    <path d="M301.29,115.32v-8h-2.38v-2.94l2.59-.18.46-4.58h3.27v4.58h4.27v3.12h-4.27v8c0,2,.76,2.94,2.37,2.94a5.26,5.26,0,0,0,1.75-.38l.67,2.89a10.92,10.92,0,0,1-3.43.61C302.73,121.38,301.29,118.94,301.29,115.32Z"/>
    <path d="M312.58,99.05a2.44,2.44,0,1,1,2.43,2.22A2.25,2.25,0,0,1,312.58,99.05Zm.45,5.16H317V121H313Z"/>
    <path d="M322,104.21h3.22l.3,2.29h.11c1.42-1.49,3-2.7,5.15-2.7a4.52,4.52,0,0,1,4.63,3c1.6-1.7,3.26-3,5.39-3,3.54,0,5.18,2.43,5.18,6.66V121H342V111c0-2.76-.82-3.8-2.58-3.8-1.06,0-2.21.68-3.51,2.09V121H332V111c0-2.76-.82-3.8-2.58-3.8-1,0-2.21.68-3.51,2.09V121H322Z"/>
    <path d="M349.64,112.61c0-5.45,3.78-8.81,7.72-8.81,4.54,0,6.93,3.28,6.93,8a11,11,0,0,1-.17,1.91H353.47c.33,3,2.24,4.67,4.95,4.67a7.12,7.12,0,0,0,3.89-1.22l1.34,2.45a10.4,10.4,0,0,1-5.75,1.81C353.27,121.38,349.64,118.14,349.64,112.61ZM360.89,111c0-2.58-1.15-4.15-3.44-4.15-2,0-3.68,1.46-4,4.15Z"/>
    <path d="M366.38,119.05l1.83-2.5a7.41,7.41,0,0,0,4.63,1.87c1.83,0,2.69-.86,2.69-2,0-1.41-1.82-2-3.61-2.72-2.19-.83-4.71-2.09-4.71-4.89s2.35-5,6.11-5a9,9,0,0,1,5.57,2l-1.81,2.41a6.24,6.24,0,0,0-3.67-1.46c-1.68,0-2.48.81-2.48,1.86,0,1.32,1.69,1.83,3.51,2.5,2.26.84,4.8,1.94,4.8,5.06,0,2.88-2.28,5.2-6.51,5.2A10.5,10.5,0,0,1,366.38,119.05Z"/>
    <path d="M390.17,115.32v-8h-2.39v-2.94l2.59-.18.47-4.58h3.26v4.58h4.28v3.12H394.1v8c0,2,.77,2.94,2.38,2.94a5.37,5.37,0,0,0,1.75-.38l.66,2.89a10.85,10.85,0,0,1-3.42.61C391.6,121.38,390.17,118.94,390.17,115.32Z"/>
    <path d="M400.78,110c0-7.33,2.87-11.18,7.38-11.18s7.37,3.87,7.37,11.18-2.87,11.36-7.37,11.36S400.78,117.36,400.78,110Zm11,0c0-6.14-1.52-8.09-3.62-8.09s-3.62,1.95-3.62,8.09,1.51,8.28,3.62,8.28S411.78,116.17,411.78,110Z"/>
    <path d="M418.36,110.94h8.11v2.87h-8.11Z"/>
    <path d="M430,117.77h4.86V103.51h-4V101a14,14,0,0,0,5-1.79h2.93v18.52h4.28V121H430Z"/>
    <path d="M446.6,125c2.23-.86,3.48-2.42,3.46-4.23l-.19-3,1.51,2.44a2.25,2.25,0,0,1-1.63.6,2.39,2.39,0,0,1-2.54-2.41,2.45,2.45,0,0,1,2.63-2.42c1.87,0,2.93,1.52,2.93,4a7.29,7.29,0,0,1-5.31,7.1Z"/>
    <path d="M463.52,114.72V104.21h3.93v10c0,2.75.8,3.79,2.61,3.79,1.48,0,2.45-.68,3.72-2.32V104.21h3.93V121h-3.22l-.3-2.48h-.11c-1.48,1.75-3.1,2.88-5.4,2.88C465.09,121.38,463.52,119,463.52,114.72Z"/>
    <path d="M482.69,104.21h3.22l.3,1.79h.11a8.08,8.08,0,0,1,5.05-2.2c4.2,0,6.6,3.36,6.6,8.53,0,5.74-3.43,9-7.16,9a6.66,6.66,0,0,1-4.31-1.84l.12,2.79v5.28h-3.93Zm11.24,8.16c0-3.34-1.1-5.32-3.65-5.32a5.32,5.32,0,0,0-3.66,1.88v7.81a5.21,5.21,0,0,0,3.36,1.4C492.22,118.14,493.93,116.17,493.93,112.37Z"/>
    <path d="M500.92,112.61c0-5.47,3.42-8.81,7.1-8.81a6.18,6.18,0,0,1,4.39,1.84l-.15-2.7V96.86h3.93V121H513l-.3-1.82h-.11a7,7,0,0,1-4.76,2.22C503.62,121.38,500.92,118.14,500.92,112.61Zm11.34,3.64v-7.81a5,5,0,0,0-3.41-1.39c-2.13,0-3.89,2-3.89,5.51,0,3.65,1.39,5.58,3.81,5.58A4.43,4.43,0,0,0,512.26,116.25Z"/>
    <path d="M520.29,116.47c0-3.59,3-5.46,9.86-6.2-.06-1.8-.78-3.3-3-3.3a9.3,9.3,0,0,0-4.71,1.65L520.94,106a13.1,13.1,0,0,1,6.88-2.2c4.2,0,6.26,2.58,6.26,7.25V121h-3.22l-.3-1.86h-.11a8.15,8.15,0,0,1-5.21,2.26A4.69,4.69,0,0,1,520.29,116.47Zm9.86,0v-3.77c-4.55.58-6.07,1.77-6.07,3.46,0,1.48,1,2.13,2.42,2.13S528.9,117.63,530.15,116.48Z"/>
    <path d="M538.84,115.32v-8h-2.39v-2.94l2.6-.18.46-4.58h3.26v4.58h4.28v3.12h-4.28v8c0,2,.77,2.94,2.38,2.94a5.31,5.31,0,0,0,1.75-.38l.67,2.89a11,11,0,0,1-3.43.61C540.28,121.38,538.84,118.94,538.84,115.32Z"/>
    <path d="M548.92,112.61c0-5.45,3.79-8.81,7.73-8.81,4.54,0,6.92,3.28,6.92,8a10.08,10.08,0,0,1-.17,1.91H552.76c.33,3,2.24,4.67,4.94,4.67a7.07,7.07,0,0,0,3.89-1.22l1.34,2.45a10.4,10.4,0,0,1-5.75,1.81C552.56,121.38,548.92,118.14,548.92,112.61ZM560.17,111c0-2.58-1.14-4.15-3.44-4.15-2,0-3.67,1.46-4,4.15Z"/>
    <path d="M574.75,115.32v-8h-2.39v-2.94l2.59-.18.47-4.58h3.26v4.58H583v3.12h-4.27v8c0,2,.76,2.94,2.37,2.94a5.26,5.26,0,0,0,1.75-.38l.67,2.89a10.86,10.86,0,0,1-3.43.61C576.18,121.38,574.75,118.94,574.75,115.32Z"/>
    <path d="M586.51,117.77h4.86V103.51h-4V101a14,14,0,0,0,5-1.79h2.93v18.52h4.27V121H586.51Z"/>
    <path d="M603.09,125c2.23-.86,3.48-2.42,3.46-4.23l-.19-3,1.51,2.44a2.25,2.25,0,0,1-1.63.6,2.38,2.38,0,0,1-2.54-2.41,2.45,2.45,0,0,1,2.62-2.42c1.87,0,2.94,1.52,2.94,4a7.29,7.29,0,0,1-5.31,7.1Z"/>
    <path d="M620.2,104.21h3.22l.3,1.79h.11a8.1,8.1,0,0,1,5-2.2c4.2,0,6.6,3.36,6.6,8.53,0,5.74-3.43,9-7.16,9a6.68,6.68,0,0,1-4.31-1.84l.12,2.79v5.28H620.2Zm11.24,8.16c0-3.34-1.09-5.32-3.65-5.32a5.32,5.32,0,0,0-3.66,1.88v7.81a5.21,5.21,0,0,0,3.36,1.4C629.73,118.14,631.44,116.17,631.44,112.37Z"/>
    <path d="M639.45,104.21h3.22l.3,3h.11c1.2-2.19,3-3.4,4.77-3.4a4.34,4.34,0,0,1,1.9.34l-.69,3.41a5.74,5.74,0,0,0-1.72-.27c-1.34,0-3,.92-4,3.47V121h-3.93Z"/>
    <path d="M650.73,112.61c0-5.45,3.79-8.81,7.73-8.81,4.54,0,6.92,3.28,6.92,8a10.08,10.08,0,0,1-.17,1.91H654.57c.33,3,2.24,4.67,4.94,4.67a7.07,7.07,0,0,0,3.89-1.22l1.34,2.45a10.38,10.38,0,0,1-5.75,1.81C654.37,121.38,650.73,118.14,650.73,112.61ZM662,111c0-2.58-1.14-4.15-3.44-4.15-1.95,0-3.67,1.46-4,4.15Z"/>
    <path d="M668.12,112.61c0-5.47,3.43-8.81,7.1-8.81a6.19,6.19,0,0,1,4.4,1.84l-.15-2.7V96.86h3.93V121h-3.22l-.3-1.82h-.11a7.06,7.06,0,0,1-4.77,2.22C670.82,121.38,668.12,118.14,668.12,112.61Zm11.35,3.64v-7.81a5,5,0,0,0-3.42-1.39c-2.13,0-3.89,2-3.89,5.51,0,3.65,1.39,5.58,3.81,5.58A4.45,4.45,0,0,0,679.47,116.25Z"/>
    <path d="M687.94,99.05a2.44,2.44,0,1,1,2.43,2.22A2.25,2.25,0,0,1,687.94,99.05Zm.45,5.16h3.94V121h-3.94Z"/>
    <path d="M696.23,112.61c0-5.59,3.94-8.81,8.41-8.81a7.18,7.18,0,0,1,4.9,1.88l-1.91,2.56a4.1,4.1,0,0,0-2.79-1.23c-2.7,0-4.57,2.24-4.57,5.6s1.84,5.57,4.45,5.57a5.56,5.56,0,0,0,3.47-1.45l1.6,2.59a8.25,8.25,0,0,1-5.48,2.06C699.74,121.38,696.23,118.16,696.23,112.61Z"/>
    <path d="M713.35,115.32v-8H711v-2.94l2.59-.18.47-4.58h3.26v4.58h4.28v3.12h-4.28v8c0,2,.77,2.94,2.38,2.94a5.25,5.25,0,0,0,1.74-.38l.67,2.89a10.85,10.85,0,0,1-3.42.61C714.78,121.38,713.35,118.94,713.35,115.32Z"/>
    <path d="M732.5,115.32v-8h-2.39v-2.94l2.59-.18.47-4.58h3.26v4.58h4.27v3.12h-4.27v8c0,2,.76,2.94,2.37,2.94a5.26,5.26,0,0,0,1.75-.38l.67,2.89a10.86,10.86,0,0,1-3.43.61C733.93,121.38,732.5,118.94,732.5,115.32Z"/>
    <path d="M743,118.69c6-5.85,9.82-9.66,9.82-13,0-2.29-1.26-3.74-3.59-3.74-1.68,0-3.07,1.11-4.23,2.4l-2.19-2.15c2-2.15,4-3.38,6.94-3.38,4.15,0,6.86,2.64,6.86,6.67,0,3.86-3.57,7.83-7.9,12.35,1.15-.11,2.58-.22,3.65-.22h5.31V121H743Z"/>
    <path d="M760.69,110.94h8.11v2.87h-8.11Z"/>
    <path d="M780,107.43c0-1.26.11-3.26.18-4.52h-.14c-.55,1.13-1.16,2.21-1.77,3.37l-3.95,6.07h12.1v3h-16v-2.68l8.6-13.46h4.66V121H780Z"/>
    <path d="M788.93,125c2.23-.86,3.48-2.42,3.46-4.23l-.19-3,1.51,2.44a2.26,2.26,0,0,1-1.63.6,2.38,2.38,0,0,1-2.54-2.41,2.45,2.45,0,0,1,2.62-2.42c1.87,0,2.94,1.52,2.94,4a7.29,7.29,0,0,1-5.31,7.1Z"/>
    <path d="M805.85,114.72V104.21h3.93v10c0,2.75.79,3.79,2.61,3.79,1.47,0,2.44-.68,3.71-2.32V104.21H820V121h-3.23l-.3-2.48h-.11a6.81,6.81,0,0,1-5.39,2.88C807.42,121.38,805.85,119,805.85,114.72Z"/>
    <path d="M825,104.21h3.22l.3,1.79h.11a8.08,8.08,0,0,1,5.05-2.2c4.19,0,6.59,3.36,6.59,8.53,0,5.74-3.42,9-7.15,9a6.64,6.64,0,0,1-4.31-1.84l.12,2.79v5.28H825Zm11.23,8.16c0-3.34-1.09-5.32-3.64-5.32a5.3,5.3,0,0,0-3.66,1.88v7.81a5.21,5.21,0,0,0,3.36,1.4C834.55,118.14,836.25,116.17,836.25,112.37Z"/>
    <path d="M843.24,112.61c0-5.47,3.43-8.81,7.1-8.81a6.19,6.19,0,0,1,4.4,1.84l-.15-2.7V96.86h3.93V121H855.3l-.3-1.82h-.11a7,7,0,0,1-4.77,2.22C846,121.38,843.24,118.14,843.24,112.61Zm11.35,3.64v-7.81a5,5,0,0,0-3.42-1.39c-2.13,0-3.89,2-3.89,5.51,0,3.65,1.4,5.58,3.81,5.58A4.45,4.45,0,0,0,854.59,116.25Z"/>
    <path d="M862.62,116.47c0-3.59,3-5.46,9.85-6.2-.05-1.8-.78-3.3-3-3.3a9.24,9.24,0,0,0-4.71,1.65L863.27,106a13.07,13.07,0,0,1,6.88-2.2c4.19,0,6.25,2.58,6.25,7.25V121h-3.22l-.3-1.86h-.11a8.1,8.1,0,0,1-5.2,2.26A4.69,4.69,0,0,1,862.62,116.47Zm9.85,0v-3.77c-4.54.58-6.06,1.77-6.06,3.46,0,1.48,1,2.13,2.42,2.13A5.28,5.28,0,0,0,872.47,116.48Z"/>
    <path d="M881.17,115.32v-8h-2.39v-2.94l2.59-.18.47-4.58h3.26v4.58h4.28v3.12H885.1v8c0,2,.77,2.94,2.38,2.94a5.25,5.25,0,0,0,1.74-.38l.67,2.89a10.85,10.85,0,0,1-3.42.61C882.6,121.38,881.17,118.94,881.17,115.32Z"/>
    <path d="M891.25,112.61c0-5.45,3.78-8.81,7.73-8.81,4.53,0,6.92,3.28,6.92,8a10.08,10.08,0,0,1-.17,1.91H895.09c.32,3,2.24,4.67,4.94,4.67a7.12,7.12,0,0,0,3.89-1.22l1.34,2.45a10.4,10.4,0,0,1-5.75,1.81C894.88,121.38,891.25,118.14,891.25,112.61ZM902.5,111c0-2.58-1.15-4.15-3.44-4.15-1.95,0-3.67,1.46-4,4.15Z"/>
    <path d="M917.07,115.32v-8h-2.39v-2.94l2.6-.18.46-4.58H921v4.58h4.27v3.12H921v8c0,2,.76,2.94,2.37,2.94a5.26,5.26,0,0,0,1.75-.38l.67,2.89a10.92,10.92,0,0,1-3.43.61C918.51,121.38,917.07,118.94,917.07,115.32Z"/>
    <path d="M936.51,107.43c0-1.26.11-3.26.18-4.52h-.14c-.55,1.13-1.16,2.21-1.78,3.37l-3.94,6.07h12.09v3h-16v-2.68l8.6-13.46h4.65V121h-3.68Z"/>
    <path d="M945.41,125c2.24-.86,3.49-2.42,3.47-4.23l-.2-3,1.51,2.44a2.22,2.22,0,0,1-1.62.6,2.38,2.38,0,0,1-2.54-2.41,2.45,2.45,0,0,1,2.62-2.42c1.87,0,2.94,1.52,2.94,4a7.29,7.29,0,0,1-5.31,7.1Z"/>
    <path d="M962.53,104.21h3.22l.3,1.79h.11a8.08,8.08,0,0,1,5.05-2.2c4.19,0,6.6,3.36,6.6,8.53,0,5.74-3.43,9-7.16,9a6.64,6.64,0,0,1-4.31-1.84l.12,2.79v5.28h-3.93Zm11.23,8.16c0-3.34-1.09-5.32-3.64-5.32a5.3,5.3,0,0,0-3.66,1.88v7.81a5.21,5.21,0,0,0,3.36,1.4C972.06,118.14,973.76,116.17,973.76,112.37Z"/>
    <path d="M981.78,104.21H985l.3,3h.11c1.19-2.19,3-3.4,4.76-3.4a4.28,4.28,0,0,1,1.9.34l-.68,3.41a5.8,5.8,0,0,0-1.72-.27c-1.34,0-2.95.92-4,3.47V121h-3.93Z"/>
    <path d="M993.06,112.61c0-5.45,3.78-8.81,7.73-8.81,4.53,0,6.92,3.28,6.92,8a10.08,10.08,0,0,1-.17,1.91H996.9c.32,3,2.24,4.67,4.94,4.67a7.12,7.12,0,0,0,3.89-1.22l1.34,2.45a10.4,10.4,0,0,1-5.75,1.81C996.69,121.38,993.06,118.14,993.06,112.61Zm11.25-1.62c0-2.58-1.15-4.15-3.44-4.15-2,0-3.67,1.46-4,4.15Z"/>
    <path d="M1010.45,112.61c0-5.47,3.42-8.81,7.09-8.81a6.19,6.19,0,0,1,4.4,1.84l-.15-2.7V96.86h3.93V121h-3.22l-.3-1.82h-.11a7,7,0,0,1-4.76,2.22C1013.15,121.38,1010.45,118.14,1010.45,112.61Zm11.34,3.64v-7.81a5,5,0,0,0-3.41-1.39c-2.13,0-3.89,2-3.89,5.51,0,3.65,1.39,5.58,3.81,5.58A4.43,4.43,0,0,0,1021.79,116.25Z"/>
    <path d="M1030.27,99.05a2.44,2.44,0,1,1,2.43,2.22A2.25,2.25,0,0,1,1030.27,99.05Zm.45,5.16h3.93V121h-3.93Z"/>
    <path d="M1038.56,112.61c0-5.59,3.94-8.81,8.41-8.81a7.2,7.2,0,0,1,4.9,1.88l-1.91,2.56a4.12,4.12,0,0,0-2.79-1.23c-2.7,0-4.57,2.24-4.57,5.6s1.84,5.57,4.45,5.57a5.56,5.56,0,0,0,3.47-1.45l1.59,2.59a8.23,8.23,0,0,1-5.47,2.06C1042.06,121.38,1038.56,118.16,1038.56,112.61Z"/>
    <path d="M1055.68,115.32v-8h-2.39v-2.94l2.59-.18.47-4.58h3.26v4.58h4.27v3.12h-4.27v8c0,2,.76,2.94,2.37,2.94a5.26,5.26,0,0,0,1.75-.38l.67,2.89a10.86,10.86,0,0,1-3.43.61C1057.11,121.38,1055.68,118.94,1055.68,115.32Z"/>
    <path d="M1074.82,115.32v-8h-2.39v-2.94l2.6-.18.46-4.58h3.26v4.58H1083v3.12h-4.28v8c0,2,.77,2.94,2.38,2.94a5.31,5.31,0,0,0,1.75-.38l.67,2.89a11,11,0,0,1-3.43.61C1076.26,121.38,1074.82,118.94,1074.82,115.32Z"/>
    <path d="M1084.86,118.37l1.83-2.52a7.16,7.16,0,0,0,5.08,2.33A3.93,3.93,0,0,0,1096,114a3.73,3.73,0,0,0-4-4.05,5.59,5.59,0,0,0-3.46,1.21l-1.88-1.2.66-10.72h11.61v3.33h-8.2l-.46,5.25a6.06,6.06,0,0,1,2.87-.7c3.72,0,6.82,2.12,6.82,6.77s-3.63,7.48-7.64,7.48A10,10,0,0,1,1084.86,118.37Z"/>
    <path d="M1103,110.94h8.11v2.87H1103Z"/>
    <path d="M1113.66,110.78c0-8.43,4.08-11.94,8.54-11.94a7.84,7.84,0,0,1,5.8,2.46l-2.12,2.39a4.8,4.8,0,0,0-3.47-1.64c-2.81,0-5.12,2.2-5.12,8.73,0,5.36,1.72,7.6,4.18,7.6,1.81,0,3.25-1.47,3.25-4.12s-1.27-3.88-3.43-3.88c-1.26,0-2.77.74-4,2.7l-.16-2.75a6.51,6.51,0,0,1,4.9-2.79c3.74,0,6.33,2.18,6.33,6.72a6.76,6.76,0,0,1-6.82,7.12C1117.28,121.38,1113.66,118.08,1113.66,110.78Z"/>
    <path d="M1131.81,118.74a2.54,2.54,0,1,1,2.54,2.64A2.55,2.55,0,0,1,1131.81,118.74Z"/>
    <path d="M1141.2,118.74a2.54,2.54,0,1,1,2.54,2.64A2.55,2.55,0,0,1,1141.2,118.74Z"/>
    <path d="M1150.58,118.74a2.54,2.54,0,1,1,2.54,2.64A2.55,2.55,0,0,1,1150.58,118.74Z"/>
  </g>
</svg>
